<?xml version="1.0" encoding="utf-8"?>
<!-- Generator: Adobe Illustrator 16.0.4, SVG Export Plug-In . SVG Version: 6.00 Build 0)  -->
<!DOCTYPE svg PUBLIC "-//W3C//DTD SVG 1.1//EN" "http://www.w3.org/Graphics/SVG/1.1/DTD/svg11.dtd">
<svg version="1.1" id="Layer_1" xmlns="http://www.w3.org/2000/svg" xmlns:xlink="http://www.w3.org/1999/xlink" x="0px" y="0px"
	 width="3165.479px" height="429.333px" viewBox="0 0 3165.479 429.333" enable-background="new 0 0 3165.479 429.333"
	 xml:space="preserve">
<g>
	<g>
		<g>
			<linearGradient id="SVGID_1_" gradientUnits="userSpaceOnUse" x1="2924.1675" y1="390.9194" x2="3035.4407" y2="29.3529">
				<stop  offset="0" style="stop-color:#FDC865"/>
				<stop  offset="0.3996" style="stop-color:#F9E6BD"/>
				<stop  offset="1" style="stop-color:#FDC865"/>
			</linearGradient>
			<polygon fill="url(#SVGID_1_)" points="2801.778,11.844 2869.997,11.844 2978.029,187.167 3086.129,11.844 3154.348,11.844 
				2995.733,215.067 3154.668,418.697 3086.449,418.697 2978.223,244.299 2869.997,418.697 2801.778,418.697 2960.388,215.484 			
				"/>
			<path fill="#FDD378" d="M3155.693,419.197h-69.522l-0.146-0.236l-107.801-173.713l-107.948,173.949h-69.522l159-203.713
				l-158.999-204.14h69.522l107.752,174.87l107.821-174.87h69.522l-0.63,0.808l-158.375,202.916L3155.693,419.197z
				 M3086.727,418.197h66.917l-158.545-203.13l0.239-0.308l157.985-202.416h-66.915l-108.38,175.776L2869.718,12.344h-66.917
				l158.22,203.141l-158.219,202.712h66.917l108.504-174.846L3086.727,418.197z"/>
		</g>
	</g>
	<defs>
		<filter id="Adobe_OpacityMaskFilter" filterUnits="userSpaceOnUse" x="2800.753" y="11.344" width="354.939" height="407.853">
			
				<feColorMatrix  type="matrix" values="-1 0 0 0 1  0 -1 0 0 1  0 0 -1 0 1  0 0 0 1 0" color-interpolation-filters="sRGB" result="source"/>
		</filter>
	</defs>
	<mask maskUnits="userSpaceOnUse" x="2800.753" y="11.344" width="354.939" height="407.853" id="SVGID_2_">
		<g filter="url(#Adobe_OpacityMaskFilter)">
			
				<image overflow="visible" width="1496" height="1717" xlink:href="6C8C92355459977C.jpg"  transform="matrix(0.24 0 0 0.24 2798.7534 9.3438)">
			</image>
		</g>
	</mask>
	<g opacity="0.6" mask="url(#SVGID_2_)">
		<g>
			<polygon fill="#F9B558" points="2801.778,11.844 2869.997,11.844 2978.029,187.167 3086.129,11.844 3154.348,11.844 
				2995.733,215.067 3154.668,418.697 3086.449,418.697 2978.223,244.299 2869.997,418.697 2801.778,418.697 2960.388,215.484 			
				"/>
			<path fill="#F9B558" d="M3155.693,419.197h-69.522l-0.146-0.236l-107.801-173.713l-107.948,173.949h-69.522l159-203.713
				l-158.999-204.14h69.522l107.752,174.87l107.821-174.87h69.522l-0.63,0.808l-158.375,202.916L3155.693,419.197z
				 M3086.727,418.197h66.917l-158.545-203.13l0.239-0.308l157.985-202.416h-66.915l-108.38,175.776L2869.718,12.344h-66.917
				l158.22,203.141l-158.219,202.712h66.917l108.504-174.846L3086.727,418.197z"/>
		</g>
	</g>
</g>
<g>
	<path fill="#FFFFFF" d="M481.596,28.181l-108.219,384.66h-42.859l-71.253-265.19l-90.54,265.19h-42.323L23.003,28.181h50.895
		l78.753,301.621l83.04-242.69l-13.929-58.931h54.11l76.61,301.621l76.611-301.621H481.596z"/>
	<path fill="#FFFFFF" d="M750.529,280.246c0,41.001-11.25,74.242-33.751,99.723c-22.501,25.49-51.615,38.23-87.326,38.23
		c-35.358,0-64.113-12.74-86.254-38.23c-22.149-25.48-33.216-58.722-33.216-99.723c0-39.921,11.25-72.801,33.751-98.651
		c22.501-25.841,51.071-38.766,85.718-38.766c34.999,0,63.929,12.925,86.79,38.766C739.095,207.444,750.529,240.325,750.529,280.246
		z M703.384,280.246c0-30.629-6.831-55.03-20.476-73.195c-13.653-18.165-31.466-27.256-53.448-27.256
		c-21.982,0-39.536,9.091-52.653,27.256c-13.125,18.165-19.68,42.566-19.68,73.195c0,30.286,6.646,54.688,19.939,73.204
		c13.293,18.524,30.763,27.783,52.394,27.783c21.982,0,39.795-9.351,53.448-28.051C696.554,334.481,703.384,310.172,703.384,280.246
		z"/>
	<path fill="#FFFFFF" d="M955.178,189.974c-7.86,0-15.36,0-22.501,0c-41.076,0-67.327,11.125-78.753,33.375v189.492h-45.538V225.869
		c0-32.145-8.932-50.895-26.787-56.252l35.895-25.715c16.072,7.148,27.674,20.718,34.823,40.716
		c25.715-27.139,54.821-40.716,87.326-40.716c6.78,0,11.962,0.176,15.536,0.527V189.974z"/>
	<path fill="#FFFFFF" d="M1213.939,412.841h-53.038l-77.682-143.042l-45.002,44.466v98.576h-45.538V28.181h45.538v230.903
		l87.325-86.12c19.638-19.37,43.931-29.063,72.86-29.063v39.645c-1.791,0-3.75,0-5.893,0c-15.72,0-41.612,18.801-77.682,56.387
		L1213.939,412.841z"/>
	<path fill="#FFFFFF" d="M1436.803,340.517c0,24.292-9.56,43.754-28.662,58.396c-19.111,14.641-43.487,21.78-73.128,21.429
		c-28.218-0.359-51.431-7.5-69.646-21.429c-20.358-15.353-30.897-36.782-31.609-64.289h52.854
		c1.775,31.793,18.86,48.041,51.255,48.752c13.527-0.352,25.096-3.558,34.706-9.618c11.385-7.132,17.085-17.286,17.085-30.47
		c0-16.75-12.816-29.935-38.431-39.562c-23.849-8.906-47.697-17.812-71.538-26.728c-25.623-13.536-38.431-33.492-38.431-59.869
		c0-20.659,7.676-38.029,23.037-52.109c15.353-14.08,34.639-21.12,57.86-21.12c24.644,0,44.818,6.077,60.539,18.215
		c17.495,13.578,26.251,31.969,26.251,55.181h-46.609c1.071-3.256,1.607-6.337,1.607-9.242c0-8.697-3.842-15.762-11.518-21.187
		c-7.685-5.424-16.165-7.609-25.448-6.538c-27.147,2.863-40.716,14.649-40.716,35.358c0,15.001,13.034,27.147,39.109,36.43
		c46.425,16.792,70.534,25.716,72.325,26.787C1423.762,293.196,1436.803,313.73,1436.803,340.517z"/>
	<path fill="#FFFFFF" d="M1608.231,413.913c-15.721,2.144-26.787,3.215-33.215,3.215c-33.576,0-55.718-12.138-66.432-36.431
		c-5.717-13.569-8.572-37.501-8.572-71.789V180.331h-42.859v-34.288h42.859v-41.788l45.537-19.822v61.61h60.004v34.288h-60.004
		v130.184c0,22.149,1.424,37.326,4.287,45.538c5.357,15.721,16.607,23.572,33.75,23.572c4.998,0,13.211-0.712,24.645-2.143V413.913z
		"/>
	<path fill="#FFFFFF" d="M1797.346,189.974c-7.86,0-15.36,0-22.501,0c-41.076,0-67.327,11.125-78.754,33.375v189.492h-45.537
		V225.869c0-32.145-8.932-50.895-26.787-56.252l35.895-25.715c16.072,7.148,27.674,20.718,34.823,40.716
		c25.715-27.139,54.82-40.716,87.325-40.716c6.78,0,11.962,0.176,15.536,0.527V189.974z"/>
	<path fill="#FFFFFF" d="M2059.322,292.3h-192.866c1.783,23.715,7.676,43.654,17.68,59.818
		c12.857,21.195,31.072,31.793,54.645,31.793c28.21,0,48.753-13.394,61.61-40.181h48.217c-18.936,51.079-55.541,76.61-109.827,76.61
		c-40.364,0-71.253-15.679-92.683-47.053c-17.144-25.665-25.715-56.855-25.715-93.57c0-39.569,11.158-72.098,33.483-97.588
		c22.316-25.481,50.627-38.229,84.914-38.229c41.428,0,72.861,14.892,94.29,44.675c17.495,24.477,26.252,54.796,26.252,90.958V292.3
		z M2011.105,253.727c-7.5-49.288-31.608-73.932-72.325-73.932c-38.221,0-61.609,24.644-70.182,73.932H2011.105z"/>
	<path fill="#FFFFFF" d="M2328.258,397.791l-36.43,25.229c-16.792-8.22-27.507-21.245-32.145-39.108
		c-7.86,8.932-19.287,16.968-34.287,24.108c-16.433,7.852-32.145,11.786-47.146,11.786c-25.004,0-45.537-8.229-61.609-24.703
		c-15.361-15.034-23.037-33.282-23.037-54.762c0-23.271,9.107-41.704,27.322-55.307c13.21-10.381,34.104-19.329,62.682-26.846
		c23.925-6.086,47.681-12.172,71.254-18.257v-12.892c0-13.243-3.935-23.974-11.787-32.211c-8.932-9.308-21.077-13.962-36.43-13.962
		c-16.433,0-28.486,2.988-36.162,8.965c-7.685,5.977-14.382,16.198-20.091,30.679h-46.073c2.854-20.86,14.465-38.841,34.823-53.951
		c20.357-15.101,42.858-22.66,67.503-22.66c28.569,0,51.339,6.981,68.307,20.936c16.959,13.962,25.447,32.747,25.447,56.361v113.794
		C2300.399,371.489,2309.683,392.424,2328.258,397.791z M2254.862,334.38v-56.01c-41.437,9.343-66.08,15.62-73.933,18.852
		c-28.218,11.134-42.323,27.105-42.323,47.932c0,10.054,3.75,18.584,11.251,25.582c7.5,6.998,17.319,10.497,29.465,10.497
		c13.21,0,29.106-5.65,47.682-16.96C2245.57,352.964,2254.862,343.002,2254.862,334.38z"/>
	<path fill="#FFFFFF" d="M2727.913,418.841h-44.467V244.19c0-17.495-4.737-31.876-14.197-43.126
		c-9.467-11.25-23.129-16.875-40.983-16.875c-12.507,0-24.736,4.202-36.698,12.59c-11.971,8.396-17.947,17.596-17.947,27.59v194.473
		h-44.467V244.19c0-17.143-4.913-31.424-14.732-42.858c-9.827-11.426-23.305-17.144-40.448-17.144
		c-20.718,0-38.757,9.643-54.109,28.93v205.724h-44.467V219.547c0-9.995-2.327-19.638-6.964-28.93
		c-4.646-9.283-10.004-14.816-16.072-16.608l32.68-22.501c14.281,7.149,23.748,18.04,28.395,32.68
		c17.854-23.573,41.604-35.359,71.253-35.359c26.787,0,49.288,14.289,67.502,42.859c7.141-12.138,17.947-22.317,32.412-30.537
		c14.465-8.212,29.014-12.322,43.663-12.322c66.432,0,99.647,30.721,99.647,92.147V418.841z"/>
</g>
</svg>
